<svg width="569" height="481" viewBox="0 0 569 481" fill="none" xmlns="http://www.w3.org/2000/svg">
<g clip-path="url(#clip0_8_217)">
<path opacity="0.19" d="M120.442 444.698C121.456 447.373 119.363 450.337 116.804 451.61C114.244 452.883 111.282 452.996 108.514 453.713C104.207 454.825 100.417 457.354 96.2472 458.909C90.5246 461.044 84.2948 461.278 78.1858 461.487C59.7541 462.124 40.0829 462.438 24.42 452.69C23.8306 452.4 23.3526 451.925 23.0597 451.336C22.8951 450.753 22.9554 450.129 23.2288 449.588C24.5246 446.599 28.2432 445.689 31.4627 445.181C46.6266 442.813 62.1526 440.67 77.5097 440.13C85.4941 439.864 117.416 436.69 120.442 444.698Z" fill="url(#paint0_linear_8_217)"/>
<path opacity="0.18" d="M436.887 445.906C429.909 447.324 423.333 450.233 416.822 453.157L390.704 464.734C405.272 472.581 422.955 469.342 439.503 469.117C440.952 469.117 442.513 469.117 443.664 470.019C445.274 471.284 445.419 473.677 446.425 475.481C448.317 478.897 452.864 479.582 456.752 479.84C491.956 482.136 527.3 481.008 562.287 476.472C563.961 476.255 565.716 475.997 567.068 474.99C571.093 471.985 568.259 465.048 563.704 462.905C559.148 460.762 553.796 461.294 548.959 459.908C544.121 458.523 539.453 453.399 541.715 448.879C521.77 449.271 501.825 449.056 481.88 448.235C466.821 447.59 451.914 442.845 436.887 445.906Z" fill="#EA4335"/>
<path opacity="0.18" d="M533.054 271.767C536.322 237.648 552.91 201.555 535.952 170.707C531.501 162.651 525.118 155.747 517.979 149.326C508.546 140.858 497.8 133.213 488.408 124.681C471.787 109.599 462.281 91.4966 449.476 74.9326C444.171 67.937 438.135 61.5281 431.471 55.8148C428.82 53.5751 426.137 51.3703 423.422 49.2005C401.159 31.5489 376.103 16.3948 347.61 7.59716C307.206 -4.84999 259.162 -2.84395 225.052 19.8751C212.769 28.0524 202.821 38.4452 193.227 49.2005C185.484 57.8772 178.007 66.7876 169.732 74.9085C162.336 82.2237 154.319 88.9266 144.958 94.3003C131.63 101.962 116.289 106.465 102.147 112.903C93.0748 117.03 84.4452 122.07 76.3908 127.944C65.5802 135.8 55.9124 145.122 47.6648 155.642C29.7724 178.474 19.6631 205.986 20.3472 233.684C20.4519 238.019 20.806 242.377 20.9428 246.728C21.2074 251.505 20.9293 256.297 20.1138 261.012C18.6168 268.746 14.9385 276.013 11.1394 283.215C5.97213 293.036 0.555305 302.736 0.0401834 313.378C-0.861279 331.699 12.6929 347.392 27.728 360.806C30.2392 363.046 32.7987 365.229 35.326 367.348C39.3504 370.732 43.4955 374.116 47.6728 377.459L48.4777 378.103C50.7153 379.884 52.9609 381.656 55.2387 383.413C60.9533 387.82 66.8048 392.114 72.8011 396.206C75.484 398.027 78.1669 399.797 80.8499 401.515C87.1199 405.544 93.5508 409.225 100.167 412.585C116.514 420.899 133.972 426.974 152.758 429.391C204.213 435.836 255.396 412.931 307.294 415.961C341.348 417.942 373.109 430.946 406.109 438.519C439.109 446.092 477.429 447.3 504.038 428.585C528.563 411.368 536.604 381.624 536.668 354.12C536.732 326.615 530.446 299.183 533.054 271.767Z" fill="#68A0FD"/>
<path d="M495.708 49.2005H69.9278C67.0094 49.1963 64.1189 49.7674 61.4211 50.8814C58.7233 51.9953 56.2711 53.6302 54.2045 55.6928C52.138 57.7553 50.4975 60.205 49.3768 62.9022C48.2561 65.5993 47.6771 68.4909 47.6729 71.412V378.112H517.939V71.4443C517.939 65.5449 515.597 59.8871 511.43 55.7156C507.262 51.544 501.61 49.2005 495.716 49.2005H495.708Z" fill="#68A0FD"/>
<path opacity="0.47" d="M132.885 328.565C132.08 336.967 124.547 343.139 116.788 345.781C112.763 347.151 108.489 347.916 105.037 350.414C101.584 352.911 99.3219 357.963 101.495 361.693C104.137 361.681 106.722 362.465 108.912 363.943C111.103 365.422 112.798 367.526 113.777 369.983C108.811 377.548 100.014 381.681 91.2409 382.873C82.4678 384.065 73.5336 382.663 64.8409 381.213C61.7905 380.714 58.5388 380.102 56.3414 377.862C54.1441 375.622 53.5405 372.367 52.9931 369.282C52.9207 368.847 52.8402 368.412 52.7597 367.969H47.4797V74.9085H76.3024V214.284C76.3024 225.652 75.7873 237.116 75.9643 248.444C76.1414 259.223 83.3048 264.685 90.1302 272.524C92.2309 274.941 94.4121 277.503 95.0319 280.685C95.6999 284.061 94.4926 287.638 95.386 290.949C96.9314 296.702 104.167 298.877 109.721 297.249C115.275 295.622 119.726 291.433 124.515 288.097C132.791 282.352 142.506 279.034 152.565 278.518C149.192 292.834 132.604 301.882 132.217 316.633C132.096 320.629 133.272 324.577 132.885 328.565Z" fill="url(#paint1_linear_8_217)"/>
<path d="M27.1887 341.197C19.9448 329.475 14.8741 316.303 13.4334 302.599C12.548 294.244 12.9263 285.431 9.15948 277.922C6.92192 273.459 3.27583 269.624 2.149 264.75C0.0563178 255.646 7.35655 247.324 14.0612 240.822C14.4634 240.34 15.0023 239.992 15.6065 239.823C16.6529 239.63 17.5946 240.5 18.2304 241.362C22.0697 246.542 22.3756 253.447 23.3575 259.787C24.4119 266.675 26.6656 273.797 31.9053 278.397C37.1451 282.998 45.218 285.02 47.8016 291.513C50.0955 297.298 46.8036 304.121 48.8721 309.995C50.9407 315.868 58.0155 319.388 59.078 325.576C59.7863 329.684 57.5809 333.761 57.6453 337.926C57.6936 341.1 59.0538 344.089 59.8265 347.175C61.4846 353.797 59.8265 373.189 49.7736 367.517C40.6704 362.402 32.5331 349.842 27.1887 341.197Z" fill="#68A0FD"/>
<path d="M27.1887 341.197C19.9448 329.475 14.8741 316.303 13.4334 302.599C12.548 294.244 12.9263 285.431 9.15948 277.922C6.92192 273.459 3.27583 269.624 2.149 264.75C0.0563178 255.646 7.35655 247.324 14.0612 240.822C14.4634 240.34 15.0023 239.992 15.6065 239.823C16.6529 239.63 17.5946 240.5 18.2304 241.362C22.0697 246.542 22.3756 253.447 23.3575 259.787C24.4119 266.675 26.6656 273.797 31.9053 278.397C37.1451 282.998 45.218 285.02 47.8016 291.513C50.0955 297.298 46.8036 304.121 48.8721 309.995C50.9407 315.868 58.0155 319.388 59.078 325.576C59.7863 329.685 57.5809 333.761 57.6453 337.926C57.6936 341.1 59.0538 344.089 59.8265 347.175C61.4846 353.797 59.8265 373.189 49.7736 367.517C40.6704 362.402 32.5331 349.842 27.1887 341.197Z" fill="url(#paint2_linear_8_217)"/>
<path d="M45.4595 327.88C42.8275 314.361 42.739 300.23 46.2644 286.905C48.3973 278.776 51.8985 270.671 50.989 262.317C50.4739 257.346 48.4134 252.464 49.0895 247.517C50.3532 238.26 60.1163 233.016 68.6802 229.342C69.2307 229.04 69.8573 228.905 70.4831 228.955C71.5375 229.149 72.0929 230.293 72.3907 231.324C74.1534 237.527 72.0124 244.069 70.6763 250.377C69.2356 257.193 68.8251 264.653 72.0929 270.808C75.3607 276.963 82.2102 281.717 82.3309 288.702C82.4356 294.929 76.9463 300.15 76.8095 306.369C76.6726 312.589 82.0412 318.389 80.8339 324.561C80.029 328.653 76.5358 331.682 75.1273 335.598C74.0487 338.587 74.2661 341.866 73.9039 345.024C73.099 351.807 64.7444 369.378 57.3073 360.492C50.6107 352.468 47.3912 337.846 45.4595 327.88Z" fill="#68A0FD"/>
<path d="M45.4595 327.88C42.8275 314.361 42.739 300.23 46.2644 286.905C48.3973 278.776 51.8985 270.671 50.989 262.317C50.4739 257.346 48.4134 252.464 49.0895 247.517C50.3532 238.26 60.1163 233.016 68.6802 229.342C69.2307 229.04 69.8573 228.905 70.4831 228.955C71.5375 229.149 72.0929 230.293 72.3907 231.324C74.1534 237.527 72.0124 244.069 70.6763 250.377C69.2356 257.193 68.8251 264.653 72.0929 270.808C75.3607 276.963 82.2102 281.717 82.3309 288.702C82.4356 294.929 76.9463 300.15 76.8095 306.369C76.6726 312.589 82.0412 318.389 80.8339 324.561C80.029 328.653 76.5358 331.682 75.1273 335.598C74.0487 338.587 74.2661 341.866 73.9039 345.024C73.099 351.807 64.7444 369.378 57.3073 360.492C50.6107 352.468 47.3912 337.846 45.4595 327.88Z" fill="url(#paint3_linear_8_217)"/>
<path d="M64.02 330.128C70.9419 318.22 80.1738 307.57 91.5709 299.819C98.525 295.106 106.469 291.296 111.315 284.432C114.196 280.355 115.87 275.328 119.629 272.049C126.672 265.918 137.449 268.44 146.335 271.308C146.948 271.439 147.509 271.75 147.945 272.202C148.613 273.008 148.283 274.272 147.824 275.247C145.071 281.072 139.147 284.577 133.996 288.444C128.418 292.617 123.203 297.958 121.609 304.742C120.015 311.525 122.036 319.622 117.52 324.955C113.496 329.709 105.938 330.007 101.737 334.623C97.5351 339.239 97.7604 347.119 92.8024 350.97C89.5104 353.523 84.8824 353.499 81.2443 355.513C78.4675 357.052 76.4714 359.654 74.1131 361.789C69.0585 366.373 51.1983 374.067 51.4558 362.482C51.6731 352.049 58.909 338.909 64.02 330.128Z" fill="#68A0FD"/>
<path d="M64.02 330.128C70.9419 318.22 80.1738 307.57 91.5709 299.819C98.525 295.106 106.469 291.296 111.315 284.432C114.196 280.355 115.87 275.328 119.629 272.049C126.672 265.918 137.449 268.44 146.335 271.308C146.948 271.439 147.509 271.75 147.945 272.202C148.613 273.008 148.283 274.273 147.824 275.247C145.071 281.072 139.147 284.577 133.996 288.444C128.418 292.617 123.203 297.958 121.609 304.742C120.015 311.525 122.036 319.622 117.52 324.955C113.496 329.709 105.938 330.007 101.737 334.623C97.5351 339.239 97.7604 347.119 92.8024 350.97C89.5104 353.523 84.8824 353.499 81.2443 355.513C78.4675 357.052 76.4714 359.654 74.1131 361.789C69.0585 366.373 51.1983 374.067 51.4558 362.482C51.6731 352.049 58.909 338.909 64.02 330.128Z" fill="url(#paint4_linear_8_217)"/>
<path d="M107.226 372.013L106.147 378.112L105.222 383.421L103.016 396.214L102.139 401.524L99.9175 414.325L98.9919 419.626L93.4704 451.433H36.0585L30.4888 419.626L29.5631 414.325L27.3578 401.524L26.4241 396.214L24.1383 383.421L23.2288 378.112L22.1663 372.021C21.9268 370.655 21.9585 369.255 22.2597 367.902C22.5609 366.548 23.1257 365.267 23.9218 364.132C24.7179 362.997 25.7297 362.03 26.8993 361.287C28.0689 360.543 29.3734 360.038 30.7383 359.799C31.3416 359.693 31.9528 359.64 32.5653 359.638H96.8268C98.366 359.636 99.8871 359.971 101.283 360.621C102.679 361.271 103.915 362.219 104.905 363.399C105.895 364.579 106.614 365.962 107.012 367.45C107.411 368.938 107.478 370.496 107.21 372.013H107.226Z" fill="#68A0FD"/>
<path d="M107.226 372.013L106.147 378.112L105.222 383.421L103.016 396.214L102.139 401.524L99.9175 414.325L98.9919 419.626L93.4704 451.433H36.0585L30.4888 419.626L29.5632 414.325L27.3578 401.524L26.4241 396.214L24.1383 383.421L23.2288 378.112L22.1663 372.021C21.9268 370.655 21.9585 369.255 22.2597 367.902C22.5609 366.548 23.1257 365.267 23.9218 364.132C24.7179 362.997 25.7297 362.03 26.8993 361.287C28.0689 360.543 29.3734 360.038 30.7383 359.799C31.3416 359.693 31.9528 359.64 32.5653 359.638H96.8268C98.366 359.636 99.8871 359.971 101.283 360.621C102.679 361.271 103.915 362.219 104.905 363.399C105.895 364.579 106.614 365.962 107.012 367.45C107.411 368.938 107.478 370.496 107.21 372.013H107.226Z" fill="url(#paint5_linear_8_217)"/>
<path d="M517.939 71.4443V74.9085H47.6729V71.4443C47.6729 65.5448 50.0142 59.8871 54.1818 55.7155C58.3493 51.544 64.0018 49.2005 69.8956 49.2005H495.676C498.594 49.1994 501.484 49.7737 504.181 50.8906C506.877 52.0075 509.328 53.6451 511.392 55.7098C513.456 57.7746 515.094 60.2262 516.212 62.9245C517.329 65.6228 517.905 68.5151 517.906 71.4362L517.939 71.4443Z" fill="url(#paint6_linear_8_217)"/>
<path d="M71.4409 66.0706C74.1836 66.0706 76.407 63.8451 76.407 61.0998C76.407 58.3545 74.1836 56.129 71.4409 56.129C68.6982 56.129 66.4748 58.3545 66.4748 61.0998C66.4748 63.8451 68.6982 66.0706 71.4409 66.0706Z" fill="url(#paint7_linear_8_217)"/>
<path d="M88.11 66.0706C90.8526 66.0706 93.076 63.8451 93.076 61.0998C93.076 58.3545 90.8526 56.129 88.11 56.129C85.3673 56.129 83.1439 58.3545 83.1439 61.0998C83.1439 63.8451 85.3673 66.0706 88.11 66.0706Z" fill="url(#paint8_linear_8_217)"/>
<path d="M104.771 66.0706C107.514 66.0706 109.737 63.8451 109.737 61.0998C109.737 58.3545 107.514 56.129 104.771 56.129C102.028 56.129 99.8048 58.3545 99.8048 61.0998C99.8048 63.8451 102.028 66.0706 104.771 66.0706Z" fill="url(#paint9_linear_8_217)"/>
<path d="M335.787 182.905V274.925C335.783 278.045 334.542 281.035 332.337 283.24C330.133 285.446 327.144 286.685 324.028 286.687H232.102C228.986 286.685 225.997 285.446 223.793 283.24C221.588 281.035 220.347 278.045 220.343 274.925V182.905C220.343 179.785 221.581 176.793 223.785 174.587C225.989 172.382 228.978 171.142 232.094 171.142H324.028C327.139 171.14 330.124 172.373 332.328 174.57C334.532 176.768 335.776 179.75 335.787 182.864V182.905Z" fill="url(#paint10_linear_8_217)"/>
<path d="M287.462 217.942C287.509 219.641 287.096 221.321 286.268 222.805C285.439 224.288 284.224 225.52 282.753 226.369C282.38 226.585 282.071 226.896 281.859 227.272C281.647 227.647 281.539 228.073 281.546 228.504V248.645C281.546 249.389 281.251 250.102 280.726 250.627C280.2 251.153 279.488 251.449 278.745 251.449H277.377C276.634 251.449 275.922 251.153 275.396 250.627C274.871 250.102 274.576 249.389 274.576 248.645V228.504C274.58 228.072 274.47 227.647 274.258 227.271C274.046 226.895 273.74 226.581 273.369 226.361C271.949 225.541 270.767 224.364 269.942 222.947C269.117 221.529 268.676 219.92 268.664 218.28C268.652 216.639 269.068 215.024 269.872 213.594C270.676 212.164 271.84 210.97 273.247 210.129C274.655 209.288 276.257 208.83 277.896 208.801C279.535 208.772 281.153 209.171 282.59 209.961C284.026 210.751 285.232 211.903 286.087 213.303C286.941 214.703 287.415 216.302 287.462 217.942ZM106.171 378.112L105.246 383.421H24.1624L23.2368 378.112H106.171ZM103.016 396.214L102.099 401.524H27.3336L26.4 396.214H103.016ZM99.8772 414.325L98.9516 419.626H30.4888L29.5632 414.325H99.8772Z" fill="#68A0FD"/>
<path opacity="0.18" d="M397.778 246.438C394.004 241.145 388.297 237.463 382.22 235.159C380.836 234.635 379.274 234.184 377.922 234.772C376.972 235.296 376.176 236.06 375.612 236.987C372.682 241.016 369.632 245.366 369.35 250.345C368.932 257.918 374.928 265.982 371.081 272.516C370.01 274.337 368.304 275.69 367.056 277.398C364.706 280.621 364.167 284.842 364.481 288.822C364.859 293.6 365.471 299.989 360.963 301.616C359.61 302.013 358.174 302.033 356.81 301.672C352.858 300.867 349.204 298.973 345.333 297.846C341.461 296.718 336.994 296.452 333.63 298.651C333.332 302.953 337.026 306.538 340.914 308.399C344.801 310.26 349.18 311.106 352.746 313.531C358.138 317.189 360.794 324.005 360.625 330.555C360.456 337.104 357.897 343.308 354.629 348.955C353.108 351.582 351.409 354.2 350.782 357.173C349.55 363.102 352.866 368.927 356.046 374.091C356.979 375.598 358.001 377.193 359.627 377.902C361.004 378.37 362.475 378.489 363.909 378.249L420.363 373.415C421.973 373.278 423.848 372.955 424.541 371.497C424.847 370.602 424.847 369.63 424.541 368.734C422.697 360.823 416.894 354.313 414.834 346.45C413.884 342.784 413.779 338.957 413.675 335.171C413.256 319.558 412.733 303.791 409.409 288.444C407.743 280.798 403.638 273.652 402.012 266.2C400.499 259.247 402.575 253.157 397.778 246.438Z" fill="#EA4335"/>
<path d="M309.186 171.142H299.197V157.712C299.183 152.103 296.944 146.73 292.972 142.774C289 138.817 283.62 136.603 278.017 136.617C272.413 136.63 267.045 138.872 263.092 142.848C259.14 146.824 256.927 152.208 256.941 157.817V171.142H246.944V157.446C247.152 149.308 250.534 141.574 256.366 135.901C262.199 130.227 270.018 127.063 278.151 127.087C286.285 127.112 294.085 130.322 299.884 136.03C305.682 141.739 309.018 149.492 309.178 157.632L309.186 171.142Z" fill="url(#paint11_linear_8_217)"/>
<path d="M517.866 439.864L526.293 447.92L514.164 460.053L498.927 461.367C498.479 460.076 498.514 458.665 499.026 457.398C499.538 456.131 500.493 455.094 501.712 454.478C504.514 452.963 507.564 451.964 510.719 451.53L510.389 445.294L517.866 439.864ZM424.203 439.244L425.442 449.411L396.901 462.204C396.901 462.204 393.336 456.686 396.99 451.892C400.644 447.099 410.721 443.731 410.721 443.731L412.5 439.308L424.203 439.244Z" fill="#34A853"/>
<path d="M431.471 282.426C431.471 282.426 421.136 290.071 420.049 301.938C418.963 313.805 418.44 317.97 418.44 317.97L400.33 316.504L400.088 326.526C400.088 326.526 424.114 335.316 427.8 333.817C431.487 332.319 436.099 325.705 436.099 325.705L431.471 282.426Z" fill="#68A0FD"/>
<path d="M431.471 282.426C431.471 282.426 421.136 290.071 420.049 301.938C418.963 313.805 418.44 317.97 418.44 317.97L400.33 316.504L400.088 326.526C400.088 326.526 424.114 335.316 427.8 333.817C431.487 332.319 436.099 325.705 436.099 325.705L431.471 282.426Z" fill="url(#paint12_linear_8_217)"/>
<path d="M438.425 345.676C438.425 345.676 400.596 376.919 400.29 387.57C399.984 398.22 409.586 439.864 409.586 439.864L424.251 439.783L424.677 396.005C424.677 396.005 455.617 385.193 458.981 378.659C462.346 372.126 469.477 340.254 438.425 345.676Z" fill="#68A0FD"/>
<path d="M438.425 345.676C438.425 345.676 400.596 376.919 400.29 387.57C399.984 398.22 409.586 439.864 409.586 439.864L424.251 439.783L424.677 396.005C424.677 396.005 455.617 385.193 458.981 378.659C462.346 372.126 469.477 340.254 438.425 345.676Z" fill="url(#paint13_linear_8_217)"/>
<path d="M438.425 345.676C438.425 345.676 440.735 393.322 455.617 408.726C470.499 424.13 508.586 447.244 508.586 447.244L519.395 440.533L482.83 402.329C482.83 402.329 488.118 359.445 481.864 351.928C475.61 344.412 438.425 345.676 438.425 345.676Z" fill="#68A0FD"/>
<path d="M438.425 345.676C438.425 345.676 440.735 393.322 455.617 408.726C470.499 424.13 508.586 447.244 508.586 447.244L519.395 440.533L482.83 402.329C482.83 402.329 488.118 359.445 481.864 351.928C475.61 344.412 438.425 345.676 438.425 345.676Z" fill="url(#paint14_linear_8_217)"/>
<path d="M438.425 345.676L425.498 290.933C425.498 290.933 432.742 270.059 461.452 276.778C490.162 283.497 481.84 351.928 481.84 351.928C481.84 351.928 449.613 362.627 438.425 345.676Z" fill="#68A0FD"/>
<path d="M438.425 345.676L425.498 290.933C425.498 290.933 432.742 270.059 461.452 276.778C490.162 283.497 481.84 351.928 481.84 351.928C481.84 351.928 449.613 362.627 438.425 345.676Z" fill="url(#paint15_linear_8_217)"/>
<path d="M460.478 285.181C460.478 285.181 458.756 276.069 467.996 278.502C477.236 280.935 491.619 312.339 491.088 316.706C490.557 321.072 445.604 322.869 445.604 322.869L444.534 312.395L468.165 308.44C468.165 308.44 459.488 293.568 460.478 285.181Z" fill="#68A0FD"/>
<path d="M460.478 285.181C460.478 285.181 458.756 276.069 467.996 278.502C477.236 280.935 491.619 312.339 491.088 316.706C490.557 321.072 445.604 322.869 445.604 322.869L444.534 312.395L468.165 308.44C468.165 308.44 459.488 293.568 460.478 285.181Z" fill="url(#paint16_linear_8_217)"/>
<path d="M456.068 265.749C454.96 268.042 453.074 269.866 450.747 270.897C450.357 271.031 449.977 271.195 449.613 271.388C449.449 271.492 449.3 271.616 449.17 271.759C448.365 272.661 448.928 273.999 449.17 275.159C449.621 277.801 448.091 280.508 445.886 282.023C444.647 282.818 443.288 283.409 441.862 283.771C439.857 284.295 437.7 284.416 436.179 283.698C433.764 282.563 434.006 278.865 433.475 276.601C431.72 269.253 430.183 261.721 430.98 254.123C431.406 250.095 432.533 245.986 434.956 242.716C437.378 239.445 441.234 237.076 445.306 237.149C449.379 237.221 453.242 239.791 456.148 242.788C457.164 243.788 458.021 244.937 458.692 246.196C460.575 249.974 459.577 254.494 458.531 258.587C457.998 261.064 457.171 263.468 456.068 265.749Z" fill="url(#paint17_linear_8_217)"/>
<path d="M459.303 247.928C459.303 247.928 447.23 247.928 439.93 252.182C433.418 255.96 431.624 264.033 431.076 263.896C429.845 263.614 425.828 255.839 427.519 254.123C429.209 252.407 427.873 252.399 427.873 252.399C427.873 252.399 425.933 249.177 426.907 243.392C427.705 239.167 428.797 235.002 430.175 230.929C430.175 230.929 430.682 229.012 437.99 230.929C445.298 232.846 457.621 238.703 458.305 241.08C458.989 243.457 458.426 244.544 458.426 244.544C458.426 244.544 460.43 246.019 459.303 247.928Z" fill="#68A0FD"/>
<path d="M459.303 247.928C459.303 247.928 447.23 247.928 439.93 252.182C433.418 255.96 431.624 264.033 431.076 263.896C429.845 263.614 425.828 255.839 427.519 254.123C429.209 252.407 427.873 252.399 427.873 252.399C427.873 252.399 425.933 249.177 426.907 243.392C427.705 239.167 428.797 235.002 430.175 230.929C430.175 230.929 430.682 229.012 437.99 230.929C445.298 232.846 457.621 238.703 458.305 241.08C458.989 243.457 458.426 244.544 458.426 244.544C458.426 244.544 460.43 246.019 459.303 247.928Z" fill="url(#paint18_linear_8_217)"/>
<path d="M439.93 252.15C444.166 253.175 448.469 253.896 452.808 254.309C456.704 254.558 459.513 253.503 459.537 253.318C459.585 252.907 458.273 259.86 458.273 259.86L455.319 260.899C454.179 261.302 452.964 261.445 451.762 261.318L433.338 259.4C433.338 259.4 436.477 253.761 439.93 252.15Z" fill="#68A0FD"/>
<path d="M439.93 252.15C444.166 253.175 448.469 253.896 452.808 254.309C456.704 254.558 459.513 253.503 459.537 253.318C459.585 252.907 458.273 259.86 458.273 259.86L455.319 260.899C454.179 261.302 452.964 261.445 451.762 261.318L433.338 259.4C433.338 259.4 436.477 253.761 439.93 252.15Z" fill="url(#paint19_linear_8_217)"/>
<path d="M447.504 255.727C448.033 255.581 448.594 255.598 449.114 255.775C449.468 255.839 449.789 256.024 450.023 256.299C450.157 256.507 450.25 256.74 450.297 256.983C450.345 257.122 450.345 257.272 450.297 257.41C450.229 257.49 450.14 257.549 450.041 257.582C449.942 257.615 449.835 257.619 449.733 257.596C448.773 257.602 447.821 257.419 446.932 257.056C446.208 256.677 446.892 255.944 447.504 255.727ZM456.003 256.121C456.154 255.986 456.331 255.882 456.524 255.817C456.716 255.752 456.92 255.727 457.122 255.743C457.253 255.735 457.385 255.755 457.508 255.8C457.631 255.846 457.744 255.917 457.838 256.009C457.974 256.186 458.08 256.385 458.152 256.597C458.216 256.727 458.244 256.871 458.233 257.016C458.214 257.098 458.171 257.173 458.11 257.23C458.048 257.288 457.97 257.325 457.887 257.338C457.245 257.593 456.545 257.662 455.866 257.539C455.287 257.37 455.617 256.484 456.003 256.121Z" fill="white"/>
<path d="M445.846 282.023C444.607 282.818 443.248 283.409 441.821 283.771C440.624 282.414 439.856 280.732 439.616 278.937C439.381 277.693 439.239 276.432 439.189 275.167C439.042 274.067 439.312 272.951 439.946 272.041C440.365 271.651 440.869 271.364 441.418 271.202C441.967 271.039 442.546 271.007 443.109 271.106C444.244 271.235 445.339 271.63 446.473 271.751C447.439 271.856 448.598 271.412 449.613 271.356C449.449 271.459 449.3 271.584 449.17 271.727C448.365 272.629 448.928 273.966 449.17 275.126C449.58 277.801 448.051 280.508 445.846 282.023Z" fill="url(#paint20_linear_8_217)"/>
<path d="M394.076 311.461C393.61 311.091 393.055 310.849 392.466 310.76C392.173 310.724 391.877 310.796 391.634 310.964C391.39 311.132 391.217 311.383 391.146 311.67C391.145 312.08 391.284 312.478 391.541 312.798L392.627 314.498C392.764 314.675 392.845 314.888 392.861 315.11C392.861 315.674 392.056 315.787 391.484 315.715C387.943 315.264 384.409 314.168 380.876 314.635C380.604 314.643 380.344 314.749 380.144 314.933C380.041 315.086 379.994 315.269 380.01 315.452C380.027 315.636 380.105 315.808 380.232 315.94C380.498 316.197 380.825 316.383 381.182 316.48C383.16 317.206 385.192 317.777 387.259 318.188C387.025 318.768 386.261 318.873 385.649 318.897C383.938 318.961 382.235 319.155 380.554 319.477C379.596 319.654 378.421 320.138 378.413 321.088C378.44 321.406 378.566 321.707 378.772 321.949C378.979 322.192 379.255 322.364 379.564 322.442C380.187 322.588 380.832 322.61 381.464 322.506C383.679 322.321 385.909 322.377 388.112 322.675C385.73 322.949 383.467 323.868 381.568 325.334C381.394 325.455 381.251 325.615 381.15 325.801C380.932 326.269 381.343 326.833 381.834 326.994C382.343 327.098 382.87 327.067 383.363 326.905C385.564 326.394 387.81 326.102 390.068 326.035C388.707 326.663 387.439 327.476 386.301 328.452C385.956 328.718 385.68 329.064 385.496 329.459C385.402 329.659 385.372 329.883 385.41 330.1C385.447 330.318 385.55 330.518 385.705 330.675C385.911 330.802 386.143 330.879 386.384 330.898C386.625 330.918 386.866 330.88 387.09 330.788C389.77 330.063 392.136 328.323 394.881 327.92C396.314 327.703 397.972 327.791 398.97 326.736C399.396 326.214 399.694 325.598 399.839 324.939C400.435 322.869 401.666 318.494 400.418 316.48C399.927 315.674 398.736 315.014 398.004 314.418C396.747 313.364 395.436 312.377 394.076 311.461ZM438.932 308.158C438.465 307.788 437.911 307.546 437.322 307.457C437.029 307.421 436.733 307.493 436.489 307.661C436.246 307.829 436.073 308.08 436.002 308.367C436.001 308.777 436.14 309.175 436.396 309.495L437.483 311.195C437.62 311.372 437.701 311.585 437.716 311.807C437.676 312.371 436.912 312.484 436.34 312.412C432.799 311.96 429.265 310.857 425.732 311.332C425.461 311.337 425.2 311.44 424.999 311.622C424.895 311.776 424.847 311.96 424.863 312.145C424.879 312.33 424.959 312.504 425.088 312.637C425.354 312.894 425.681 313.08 426.038 313.177C428.016 313.903 430.048 314.474 432.115 314.885C431.881 315.465 431.116 315.562 430.505 315.586C428.794 315.656 427.091 315.853 425.41 316.174C424.452 316.351 423.277 316.826 423.269 317.785C423.296 318.103 423.422 318.404 423.628 318.646C423.834 318.889 424.111 319.061 424.42 319.139C425.043 319.285 425.688 319.307 426.319 319.203C428.535 319.017 430.764 319.074 432.968 319.372C430.588 319.646 428.328 320.565 426.432 322.031C426.256 322.149 426.11 322.306 426.006 322.49C425.971 322.613 425.962 322.741 425.977 322.868C425.993 322.994 426.033 323.116 426.096 323.227C426.159 323.338 426.243 323.435 426.343 323.513C426.444 323.591 426.559 323.649 426.682 323.682C427.189 323.793 427.717 323.765 428.211 323.602C430.411 323.087 432.657 322.795 434.915 322.732C433.554 323.36 432.287 324.173 431.149 325.149C430.804 325.415 430.528 325.76 430.344 326.156C430.252 326.356 430.224 326.579 430.261 326.796C430.298 327.013 430.4 327.214 430.553 327.372C430.76 327.499 430.994 327.576 431.236 327.595C431.478 327.615 431.721 327.577 431.945 327.485C434.618 326.76 436.984 325.02 439.729 324.617C441.161 324.399 442.819 324.488 443.817 323.433C444.244 322.911 444.542 322.295 444.687 321.636C445.29 319.566 446.514 315.191 445.266 313.169C444.775 312.363 443.584 311.711 442.852 311.114C441.598 310.061 440.289 309.074 438.932 308.158Z" fill="#68A0FD"/>
<path d="M394.076 311.461C393.61 311.091 393.055 310.849 392.466 310.76C392.173 310.724 391.877 310.796 391.634 310.964C391.39 311.132 391.217 311.383 391.146 311.67C391.145 312.08 391.284 312.478 391.541 312.798L392.627 314.498C392.764 314.675 392.845 314.888 392.861 315.11C392.861 315.674 392.056 315.787 391.484 315.715C387.943 315.264 384.409 314.168 380.876 314.635C380.604 314.643 380.344 314.749 380.144 314.933C380.041 315.086 379.994 315.269 380.01 315.452C380.026 315.636 380.105 315.808 380.232 315.94C380.498 316.197 380.825 316.383 381.182 316.48C383.16 317.206 385.192 317.777 387.259 318.188C387.025 318.768 386.261 318.873 385.649 318.897C383.938 318.961 382.235 319.155 380.554 319.477C379.596 319.654 378.421 320.138 378.413 321.088C378.44 321.406 378.566 321.707 378.772 321.949C378.979 322.192 379.255 322.364 379.564 322.442C380.187 322.588 380.832 322.61 381.464 322.506C383.679 322.321 385.908 322.377 388.112 322.675C385.73 322.949 383.467 323.868 381.568 325.334C381.394 325.455 381.251 325.615 381.15 325.801C380.932 326.269 381.343 326.833 381.834 326.994C382.343 327.098 382.87 327.067 383.363 326.905C385.564 326.394 387.81 326.102 390.068 326.035C388.707 326.663 387.439 327.476 386.301 328.452C385.956 328.718 385.68 329.064 385.496 329.459C385.402 329.659 385.372 329.883 385.41 330.1C385.447 330.318 385.55 330.518 385.705 330.675C385.911 330.802 386.143 330.879 386.384 330.898C386.625 330.918 386.866 330.88 387.09 330.788C389.77 330.063 392.136 328.323 394.881 327.92C396.314 327.703 397.972 327.791 398.97 326.736C399.396 326.214 399.694 325.598 399.839 324.939C400.435 322.869 401.666 318.494 400.418 316.48C399.927 315.674 398.736 315.014 398.004 314.418C396.747 313.364 395.436 312.377 394.076 311.461Z" fill="url(#paint21_linear_8_217)"/>
<path d="M438.932 308.158C438.465 307.788 437.911 307.546 437.322 307.457C437.029 307.421 436.733 307.493 436.489 307.661C436.246 307.829 436.073 308.08 436.002 308.367C436.001 308.777 436.14 309.175 436.396 309.495L437.483 311.195C437.62 311.372 437.701 311.585 437.716 311.807C437.676 312.371 436.912 312.484 436.34 312.412C432.799 311.96 429.265 310.857 425.732 311.332C425.461 311.337 425.2 311.44 424.999 311.622C424.895 311.776 424.847 311.96 424.863 312.145C424.879 312.33 424.959 312.504 425.088 312.637C425.354 312.894 425.681 313.08 426.038 313.177C428.016 313.903 430.048 314.474 432.115 314.885C431.881 315.465 431.116 315.562 430.505 315.586C428.794 315.656 427.091 315.853 425.41 316.174C424.452 316.351 423.277 316.826 423.269 317.785C423.296 318.103 423.422 318.404 423.628 318.646C423.834 318.889 424.111 319.061 424.42 319.139C425.043 319.285 425.688 319.307 426.319 319.203C428.535 319.017 430.764 319.074 432.968 319.372C430.588 319.646 428.328 320.565 426.432 322.031C426.256 322.149 426.11 322.306 426.005 322.49C425.971 322.613 425.962 322.741 425.977 322.868C425.993 322.994 426.033 323.116 426.096 323.227C426.159 323.338 426.243 323.435 426.343 323.513C426.444 323.591 426.559 323.649 426.682 323.682C427.189 323.793 427.717 323.765 428.211 323.602C430.411 323.087 432.657 322.795 434.915 322.732C433.554 323.36 432.287 324.173 431.149 325.149C430.804 325.415 430.528 325.76 430.344 326.156C430.252 326.356 430.224 326.579 430.261 326.796C430.298 327.013 430.4 327.214 430.553 327.372C430.76 327.499 430.994 327.576 431.236 327.595C431.478 327.615 431.721 327.577 431.945 327.485C434.618 326.76 436.984 325.02 439.729 324.617C441.161 324.4 442.819 324.488 443.817 323.433C444.244 322.911 444.542 322.295 444.687 321.636C445.29 319.566 446.514 315.191 445.266 313.169C444.775 312.363 443.584 311.711 442.852 311.114C441.598 310.061 440.289 309.074 438.932 308.158Z" fill="url(#paint22_linear_8_217)"/>
</g>
<defs>
<linearGradient id="paint0_linear_8_217" x1="22.9712" y1="450.523" x2="120.699" y2="450.523" gradientUnits="userSpaceOnUse">
<stop stop-color="#18662D"/>
<stop offset="1" stop-color="#4285F4"/>
</linearGradient>
<linearGradient id="paint1_linear_8_217" x1="219.563" y1="222.035" x2="-390.907" y2="250.219" gradientUnits="userSpaceOnUse">
<stop stop-opacity="0"/>
<stop offset="0.97" stop-color="#0C110D"/>
<stop offset="0.98" stop-color="#2F4334"/>
<stop offset="0.99" stop-color="#3D5644"/>
</linearGradient>
<linearGradient id="paint2_linear_8_217" x1="-9.54587" y1="311.058" x2="266.998" y2="268.028" gradientUnits="userSpaceOnUse">
<stop stop-opacity="0"/>
<stop offset="0.97" stop-color="#0C110D"/>
<stop offset="0.98" stop-color="#2F4334"/>
<stop offset="0.99" stop-color="#3D5644"/>
</linearGradient>
<linearGradient id="paint3_linear_8_217" x1="17.2646" y1="298.885" x2="212.618" y2="287.137" gradientUnits="userSpaceOnUse">
<stop stop-opacity="0"/>
<stop offset="0.29" stop-opacity="0.29"/>
<stop offset="0.97" stop-color="#0C110D"/>
<stop offset="0.98" stop-color="#2F4334"/>
<stop offset="0.99" stop-color="#3D5644"/>
</linearGradient>
<linearGradient id="paint4_linear_8_217" x1="171.197" y1="417.725" x2="66.8761" y2="273.416" gradientUnits="userSpaceOnUse">
<stop stop-opacity="0"/>
<stop offset="0.84" stop-opacity="0.66"/>
<stop offset="0.97"/>
</linearGradient>
<linearGradient id="paint5_linear_8_217" x1="129.722" y1="400.243" x2="3.7895" y2="410.182" gradientUnits="userSpaceOnUse">
<stop stop-opacity="0"/>
<stop offset="0.87" stop-opacity="0.66"/>
<stop offset="1"/>
</linearGradient>
<linearGradient id="paint6_linear_8_217" x1="281.715" y1="-18.6264" x2="288.408" y2="543.228" gradientUnits="userSpaceOnUse">
<stop stop-opacity="0"/>
<stop offset="0.5" stop-opacity="0.38"/>
<stop offset="0.97" stop-color="#0C110D"/>
<stop offset="0.98" stop-color="#2F4334"/>
<stop offset="0.99" stop-color="#3D5644"/>
</linearGradient>
<linearGradient id="paint7_linear_8_217" x1="73.5336" y1="47.7584" x2="69.9775" y2="70.2992" gradientUnits="userSpaceOnUse">
<stop stop-color="#18662D"/>
<stop offset="1" stop-color="#4285F4"/>
</linearGradient>
<linearGradient id="paint8_linear_8_217" x1="90.2026" y1="47.7665" x2="86.6465" y2="70.3073" gradientUnits="userSpaceOnUse">
<stop stop-color="#18662D"/>
<stop offset="1" stop-color="#4285F4"/>
</linearGradient>
<linearGradient id="paint9_linear_8_217" x1="106.872" y1="47.7745" x2="103.316" y2="70.3153" gradientUnits="userSpaceOnUse">
<stop stop-color="#18662D"/>
<stop offset="1" stop-color="#4285F4"/>
</linearGradient>
<linearGradient id="paint10_linear_8_217" x1="305.218" y1="56.3465" x2="259.198" y2="348.257" gradientUnits="userSpaceOnUse">
<stop offset="0.01"/>
<stop offset="0.99" stop-opacity="0"/>
</linearGradient>
<linearGradient id="paint11_linear_8_217" x1="278.729" y1="122.047" x2="277.656" y2="190.558" gradientUnits="userSpaceOnUse">
<stop offset="0.01"/>
<stop offset="0.99" stop-opacity="0"/>
</linearGradient>
<linearGradient id="paint12_linear_8_217" x1="408.894" y1="297.789" x2="506.728" y2="392.593" gradientUnits="userSpaceOnUse">
<stop offset="0.01"/>
<stop offset="0.15" stop-opacity="0.52"/>
<stop offset="0.99" stop-opacity="0"/>
</linearGradient>
<linearGradient id="paint13_linear_8_217" x1="437.918" y1="398.349" x2="324.855" y2="302.576" gradientUnits="userSpaceOnUse">
<stop offset="0.01"/>
<stop offset="0.16" stop-opacity="0.52"/>
<stop offset="1" stop-opacity="0"/>
</linearGradient>
<linearGradient id="paint14_linear_8_217" x1="442.57" y1="404.335" x2="612.539" y2="361.149" gradientUnits="userSpaceOnUse">
<stop offset="0.01"/>
<stop offset="0.15" stop-opacity="0.52"/>
<stop offset="0.99" stop-opacity="0"/>
</linearGradient>
<linearGradient id="paint15_linear_8_217" x1="429.563" y1="334.526" x2="560.791" y2="249.58" gradientUnits="userSpaceOnUse">
<stop offset="0.01"/>
<stop offset="0.15" stop-opacity="0.52"/>
<stop offset="0.99" stop-opacity="0"/>
</linearGradient>
<linearGradient id="paint16_linear_8_217" x1="445.725" y1="297.435" x2="563.134" y2="331.792" gradientUnits="userSpaceOnUse">
<stop offset="0.01"/>
<stop offset="0.15" stop-opacity="0.52"/>
<stop offset="0.99" stop-opacity="0"/>
</linearGradient>
<linearGradient id="paint17_linear_8_217" x1="430.473" y1="260.143" x2="457.81" y2="267.182" gradientUnits="userSpaceOnUse">
<stop stop-color="#C4D3EC"/>
<stop offset="0.42" stop-color="#D1DCEF"/>
<stop offset="1" stop-color="#FBBC05"/>
</linearGradient>
<linearGradient id="paint18_linear_8_217" x1="428.299" y1="248.129" x2="518.41" y2="214.518" gradientUnits="userSpaceOnUse">
<stop offset="0.01"/>
<stop offset="0.03" stop-opacity="0.93"/>
<stop offset="0.51" stop-opacity="0.05"/>
<stop offset="0.58" stop-opacity="0.03"/>
<stop offset="0.99" stop-opacity="0"/>
</linearGradient>
<linearGradient id="paint19_linear_8_217" x1="436.767" y1="257.402" x2="498.34" y2="253.277" gradientUnits="userSpaceOnUse">
<stop offset="0.01"/>
<stop offset="0.15" stop-opacity="0.52"/>
<stop offset="0.99" stop-opacity="0"/>
</linearGradient>
<linearGradient id="paint20_linear_8_217" x1="437.656" y1="273.28" x2="467.159" y2="296.243" gradientUnits="userSpaceOnUse">
<stop stop-color="#C4D3EC"/>
<stop offset="0.42" stop-color="#D1DCEF"/>
<stop offset="1" stop-color="#FBBC05"/>
</linearGradient>
<linearGradient id="paint21_linear_8_217" x1="390.116" y1="306.474" x2="383.705" y2="508.931" gradientUnits="userSpaceOnUse">
<stop offset="0.01"/>
<stop offset="0.15" stop-opacity="0.52"/>
<stop offset="0.99" stop-opacity="0"/>
</linearGradient>
<linearGradient id="paint22_linear_8_217" x1="434.851" y1="306.941" x2="428.44" y2="509.399" gradientUnits="userSpaceOnUse">
<stop offset="0.01"/>
<stop offset="0.15" stop-opacity="0.52"/>
<stop offset="0.99" stop-opacity="0"/>
</linearGradient>
<clipPath id="clip0_8_217">
<rect width="569" height="481" fill="white"/>
</clipPath>
</defs>
</svg>
